<svg width="36" height="30" viewBox="0 0 36 30" fill="none" xmlns="http://www.w3.org/2000/svg">
<g clip-path="url(#clip0_149_5391)">
<path d="M3.72975 16.4082H1.34466V18.6274H0V20.3567H1.34546V23.9453C1.34546 25.4141 1.88125 26.2182 3.72816 26.2182C4.28071 26.2182 4.82688 26.1669 5.23252 26.0506V24.4175C5.0273 24.4632 4.79574 24.4648 4.59133 24.4648C3.8647 24.4648 3.73055 24.1706 3.73055 23.5292V20.3567H5.46727V18.6274H3.73055V16.4082H3.72975Z" fill="white"/>
<path d="M10.9611 20.6028V18.4358C9.40488 18.3973 8.48821 19.1405 8.0698 20.1322C8.0698 19.7265 8.04105 18.8935 8.00033 18.6274H5.68311C5.69748 19.3088 5.69748 19.9919 5.69748 20.6734V26.158H8.069V23.4065C8.069 21.2587 9.26434 20.5748 10.9603 20.6028H10.9611Z" fill="white"/>
<path d="M14.8001 18.4229C12.0597 18.4229 10.6392 20.2813 10.6392 22.4026C10.6392 24.3172 11.7467 26.3624 14.8177 26.3624C17.2259 26.3624 18.3534 25.1895 18.8061 23.8554H16.4346C16.1615 24.3172 15.7391 24.593 14.8432 24.593C13.7197 24.593 13.0618 23.8818 13.0003 22.9719H18.8836C18.8964 22.7306 18.8964 22.5935 18.8964 22.4035C18.8964 22.0539 18.858 21.7035 18.7806 21.362L14.8544 18.4245C14.836 18.4245 14.8185 18.4237 14.8001 18.4237V18.4229ZM13.0298 21.5135C13.1001 20.7727 13.5529 20.0905 14.7985 20.0905C16.1352 20.0905 16.4434 20.9387 16.4905 21.5135H13.029H13.0298Z" fill="white"/>
<path d="M25.3586 18.6339L25.341 18.6772L25.2883 18.609C24.9426 18.4872 24.5521 18.4238 24.1193 18.4238C23.7936 18.4238 23.5077 18.4575 23.2538 18.5144L19.2573 21.6668V26.1597H21.6424V22.4028C21.6424 21.0455 22.1574 20.275 23.2642 20.275C24.3709 20.275 24.6623 21.0327 24.6623 21.8945V26.1597H27.0594V21.5145C27.0594 20.0594 26.4445 19.0492 25.3586 18.6347V18.6339Z" fill="white"/>
<path d="M35.9857 24.0399V15.3066H33.6006V19.1998C33.385 18.9216 32.7893 18.4238 31.3257 18.4238C29.47 18.4238 27.4634 19.9174 27.4634 22.4581C27.4634 24.8096 29.0196 26.3633 31.1037 26.3633C32.6592 26.3633 33.1878 25.8679 33.6006 25.289C33.6134 25.5816 33.6277 25.936 33.6589 26.1597H36.0001C35.9857 25.4582 35.9857 24.7422 35.9857 24.0407V24.0399ZM31.8016 24.5017C30.5863 24.5017 29.9028 23.5933 29.9028 22.4052C29.9028 21.2948 30.5232 20.2726 31.8096 20.2726C33.0959 20.2726 33.6589 21.1008 33.6589 22.3947C33.6589 23.6887 33.0305 24.5017 31.8008 24.5017H31.8016Z" fill="white"/>
<path d="M26.4467 14.0278L23.0116 14.4856L23.5498 15.1791L19.2108 18.4943L15.5625 15.7636V18.0413L19.2108 20.7712L24.595 16.5252L25.1428 17.2308L26.4467 14.0278Z" fill="#00AAA5"/>
<path d="M7.1449 28.7452C7.1449 29.1445 6.91494 29.4668 6.49413 29.4668C6.09648 29.4668 5.85693 29.1621 5.85693 28.7509C5.85693 28.3396 6.09329 28.0293 6.5101 28.0293C6.89417 28.0293 7.1449 28.3147 7.1449 28.7452ZM6.12762 28.7485C6.12762 29.0427 6.27055 29.2495 6.50371 29.2495C6.73687 29.2495 6.87421 29.0515 6.87421 28.7493C6.87421 28.447 6.74086 28.2466 6.49812 28.2466C6.25538 28.2466 6.12762 28.439 6.12762 28.7477V28.7485Z" fill="#BCBEC0"/>
<path d="M7.8188 28.4079C7.8188 28.2892 7.8188 28.1674 7.81641 28.0623H8.07272C8.07911 28.1016 8.0831 28.2363 8.0831 28.278C8.1358 28.1666 8.24759 28.0303 8.5071 28.0303C8.76661 28.0303 8.96304 28.193 8.96304 28.5546V29.4357H8.69954V28.5875C8.69954 28.3903 8.62448 28.2564 8.42406 28.2564C8.18531 28.2564 8.0831 28.4327 8.0831 28.7021V29.4365H7.8196V28.4095L7.8188 28.4079Z" fill="#BCBEC0"/>
<path d="M9.89951 28.799C9.90111 29.0571 10.0305 29.2495 10.254 29.2495C10.4585 29.2495 10.5239 29.1469 10.5662 29.0499H10.8313C10.7786 29.2239 10.6317 29.4668 10.2461 29.4668C9.81247 29.4668 9.63281 29.118 9.63281 28.7637C9.63281 28.3508 9.84042 28.0293 10.2604 28.0293C10.7068 28.0293 10.8545 28.3821 10.8545 28.6843C10.8545 28.7268 10.8545 28.7613 10.8505 28.799H9.89871H9.89951ZM10.5886 28.6186C10.5862 28.4053 10.4824 28.2329 10.258 28.2329C10.0337 28.2329 9.92985 28.3925 9.90749 28.6186H10.5886Z" fill="#BCBEC0"/>
<path d="M12.6424 29.054C12.6847 29.2175 12.8029 29.3154 13.0025 29.3154C13.2237 29.3154 13.3123 29.2159 13.3123 29.0764C13.3123 28.9369 13.2484 28.8664 12.9666 28.7974C12.6009 28.7084 12.517 28.597 12.517 28.4158C12.517 28.2346 12.6575 28.0454 12.9817 28.0454C13.3059 28.0454 13.4512 28.2394 13.4712 28.431H13.2947C13.2724 28.3292 13.1941 28.1969 12.9745 28.1969C12.755 28.1969 12.6975 28.302 12.6975 28.4014C12.6975 28.5152 12.7582 28.5721 13.0169 28.6347C13.4113 28.7293 13.5 28.86 13.5 29.0628C13.5 29.3057 13.3059 29.4677 12.9977 29.4677C12.6703 29.4677 12.4978 29.2977 12.4619 29.0548H12.6432L12.6424 29.054Z" fill="#BCBEC0"/>
<path d="M13.9966 28.0774H14.2401V27.6646H14.4198V28.0774H14.7304V28.2338H14.4198V29.0756C14.4198 29.2183 14.4517 29.2969 14.5787 29.2969C14.6154 29.2969 14.6681 29.2945 14.7088 29.2824V29.4276C14.6577 29.4476 14.5859 29.4524 14.5252 29.4524C14.3351 29.4524 14.2401 29.3554 14.2401 29.1341V28.233H13.9966V28.0766V28.0774Z" fill="#BCBEC0"/>
<path d="M16.48 28.7532C16.48 29.1364 16.2652 29.4667 15.8572 29.4667C15.4819 29.4667 15.252 29.1653 15.252 28.7564C15.252 28.3475 15.4731 28.0444 15.8716 28.0444C16.2381 28.0444 16.48 28.3266 16.48 28.7524V28.7532ZM15.4396 28.7556C15.4396 29.0666 15.6009 29.308 15.8676 29.308C16.1343 29.308 16.2924 29.0827 16.2924 28.7564C16.2924 28.4301 16.1415 28.204 15.8628 28.204C15.5841 28.204 15.4404 28.4373 15.4404 28.7564L15.4396 28.7556Z" fill="#BCBEC0"/>
<path d="M17.3554 29.2488V29.9728H17.1757V28.4102C17.1757 28.2996 17.1757 28.1817 17.1733 28.0775H17.349C17.3546 28.1264 17.3554 28.2082 17.3554 28.3076C17.4344 28.1568 17.5774 28.0454 17.8153 28.0454C18.1315 28.0454 18.3551 28.3116 18.3551 28.7213C18.3551 29.2079 18.0948 29.4669 17.7682 29.4669C17.539 29.4669 17.4193 29.3675 17.3546 29.2488H17.3554ZM18.1683 28.7285C18.1683 28.4262 18.0261 28.2082 17.7754 28.2082C17.4696 28.2082 17.3458 28.4014 17.3458 28.7525C17.3458 29.1037 17.4448 29.3081 17.757 29.3081C18.0229 29.3081 18.1683 29.0853 18.1683 28.7293V28.7285Z" fill="#BCBEC0"/>
<path d="M21.0832 29.1589C21.0832 29.28 21.0936 29.393 21.1024 29.4339H20.9299C20.9187 29.4026 20.9107 29.3409 20.9067 29.2391C20.8604 29.3353 20.7463 29.466 20.4756 29.466C20.1594 29.466 20.0244 29.2599 20.0244 29.0555C20.0244 28.7548 20.2576 28.6177 20.6608 28.6177H20.9059V28.4895C20.9059 28.3612 20.8668 28.1952 20.5834 28.1952C20.3318 28.1952 20.2927 28.3251 20.2648 28.4333H20.0883C20.1051 28.2666 20.2081 28.0429 20.5881 28.0437C20.9067 28.0437 21.084 28.1768 21.084 28.4798V29.1581L21.0832 29.1589ZM20.9075 28.7564H20.664C20.3781 28.7564 20.2105 28.8334 20.2105 29.0475C20.2105 29.2046 20.3207 29.3152 20.4995 29.3152C20.858 29.3152 20.9075 29.0747 20.9075 28.8029V28.7564Z" fill="#BCBEC0"/>
<path d="M22.9542 29.3289C22.9542 29.7635 22.7682 30 22.3538 30C21.9761 30 21.8387 29.7875 21.81 29.5911H21.9936C22.0384 29.761 22.1765 29.8452 22.361 29.8452C22.6923 29.8452 22.7794 29.632 22.7794 29.3025V29.1758C22.7067 29.3409 22.5781 29.4323 22.341 29.4323C22.0176 29.4323 21.7812 29.1678 21.7812 28.7581C21.7812 28.3083 22.0392 28.0461 22.3618 28.0461C22.6292 28.0461 22.7442 28.1728 22.7786 28.273C22.781 28.2025 22.785 28.1095 22.7881 28.079H22.9582C22.9582 28.1415 22.9534 28.3412 22.9534 28.4719V29.3297L22.9542 29.3289ZM21.9713 28.7493C21.9713 29.0555 22.1318 29.2712 22.3729 29.2712C22.6899 29.2712 22.7842 29.0587 22.7842 28.73C22.7842 28.4013 22.6891 28.2057 22.3809 28.2057C22.0983 28.2057 21.9705 28.4478 21.9705 28.7501L21.9713 28.7493Z" fill="#BCBEC0"/>
<path d="M23.8342 28.7846C23.8366 29.1005 23.9947 29.3081 24.2407 29.3081C24.4866 29.3081 24.5553 29.1799 24.6008 29.074H24.7828C24.7277 29.2504 24.584 29.4669 24.2343 29.4669C23.8167 29.4669 23.6514 29.1157 23.6514 28.7686C23.6514 28.3733 23.8478 28.0454 24.2502 28.0454C24.675 28.0454 24.8124 28.4022 24.8124 28.6724C24.8124 28.7116 24.8124 28.7485 24.8092 28.7846H23.8342ZM24.6287 28.6443C24.6263 28.3966 24.4954 28.1993 24.2462 28.1993C23.9971 28.1993 23.8694 28.3813 23.843 28.6443H24.6287Z" fill="#BCBEC0"/>
<path d="M25.5063 28.4197C25.5063 28.3011 25.5063 28.1848 25.5039 28.0782H25.6796C25.6852 28.1199 25.6884 28.281 25.6868 28.3203C25.7435 28.1921 25.8544 28.0461 26.1251 28.0461C26.3711 28.0461 26.5779 28.1913 26.5779 28.5593V29.4355H26.3982V28.5849C26.3982 28.3596 26.3072 28.2113 26.0852 28.2113C25.7938 28.2113 25.6868 28.4462 25.6868 28.7316V29.4355H25.5071V28.4205L25.5063 28.4197Z" fill="#BCBEC0"/>
<path d="M28.403 29.0283C28.3415 29.2648 28.1842 29.4669 27.8632 29.4669C27.5095 29.4669 27.2739 29.2071 27.2739 28.7622C27.2739 28.3853 27.4799 28.0454 27.88 28.0454C28.2441 28.0454 28.3822 28.3052 28.403 28.4888H28.2225C28.185 28.3404 28.09 28.2042 27.876 28.2042C27.6109 28.2042 27.4616 28.431 27.4616 28.7557C27.4616 29.0804 27.6037 29.3089 27.8648 29.3089C28.0493 29.3089 28.1587 29.2127 28.2217 29.0283H28.403Z" fill="#BCBEC0"/>
<path d="M29.1521 28.0775C29.4005 28.7958 29.5194 29.1341 29.561 29.2769H29.5634C29.6129 29.1165 29.7151 28.8038 29.9586 28.0775H30.1423L29.644 29.5053C29.5035 29.9046 29.4045 29.9992 29.1457 29.9992C29.1002 29.9992 29.0595 29.9968 29.0116 29.9904V29.8236C29.0491 29.8284 29.0875 29.8316 29.1282 29.8316C29.3118 29.8316 29.3757 29.7451 29.4659 29.4901L28.9541 28.0767H29.1497L29.1521 28.0775Z" fill="#BCBEC0"/>
<path d="M31.0654 28.9395H35.9386" stroke="#BCBEC0" stroke-width="1.22" stroke-miterlimit="10"/>
<path d="M0.0625 28.9395H4.93569" stroke="#BCBEC0" stroke-width="1.22" stroke-miterlimit="10"/>
<path d="M8.65475 18.3212C9.28716 17.9027 10.0801 17.6894 10.9792 17.7119C10.9975 17.7119 11.0159 17.7143 11.0343 17.7159V0.499512H7.32606C6.27764 1.68768 4.09537 3.39457 1.15771 4.10169V7.84979C2.26363 7.77523 4.83637 7.09776 6.0916 6.3738V17.9027H8.00079C8.28745 17.9027 8.53897 18.0711 8.65475 18.3212Z" fill="#00AAA5"/>
<path d="M14.8406 17.6998V15.7636C14.8406 15.4895 14.9947 15.2393 15.2382 15.1158C15.4826 14.9932 15.774 15.0188 15.9928 15.1824L19.206 17.5868L19.7905 17.1402C19.3441 15.7059 19.174 14.0391 19.174 12.4485C19.174 7.78882 20.4276 3.99102 24.2133 3.99102C27.9989 3.99102 29.0713 8.43101 29.0713 12.2994C29.0713 15.1928 28.6952 17.9564 27.3649 19.5606C27.4081 19.6488 27.4488 19.7386 27.4847 19.8316C27.6867 19.5142 27.9271 19.2215 28.205 18.9594C29.0554 18.1584 30.1932 17.699 31.3255 17.699C31.9651 17.699 32.4745 17.7864 32.8785 17.9163V15.3075C32.8785 14.9074 33.2019 14.5827 33.6004 14.5827H34.097C34.1705 13.8355 34.2056 13.0642 34.2056 12.2745C34.2064 5.59448 30.8567 0 24.1885 0C17.5203 0 14.0142 5.61212 14.0142 12.499C14.0142 14.3638 14.2513 16.1228 14.7272 17.6998C14.752 17.6998 14.7759 17.6982 14.7999 17.6982C14.8135 17.6982 14.827 17.6982 14.8406 17.6982V17.6998Z" fill="#00AAA5"/>
</g>
<defs>
<clipPath id="clip0_149_5391">
<rect width="36" height="30" fill="white"/>
</clipPath>
</defs>
</svg>
