<svg width="45" height="50" viewBox="0 0 45 50" fill="none" xmlns="http://www.w3.org/2000/svg">
<path d="M42.6665 20.0696C42.3444 9.22402 33.4223 0.5 22.5 0.5C11.5777 0.5 2.65555 9.22402 2.3334 20.0696L0.882324 21.5207V31.3616L2.3235 32.8028V39.5078C2.3235 43.4282 5.51292 46.6176 9.43331 46.6176H11.2184C11.8134 48.2951 13.4153 49.5 15.2941 49.5H18.1764C20.0565 49.5 21.6593 48.2934 22.2532 46.6142C22.3356 46.6156 22.4181 46.6176 22.5 46.6176C29.4597 46.6176 35.283 41.6585 36.622 35.0882H40.391L44.1176 31.3616V21.5207L42.6665 20.0696ZM22.5 3.38235C31.0539 3.38235 38.1762 9.62543 39.5526 17.7941H36.622C35.283 11.2239 29.4597 6.26471 22.5 6.26471C15.5402 6.26471 9.71693 11.2239 8.37798 17.7941H5.4474C6.82372 9.62543 13.946 3.38235 22.5 3.38235ZM33.6646 17.7941C29.0058 17.7802 25.7151 18.0639 23.0021 14.098L21.6847 12.1723L20.5525 14.2124C18.9028 17.185 16.6812 17.7941 13.8529 17.7941H11.3354C12.6185 12.8271 17.1375 9.14706 22.5 9.14706C27.8624 9.14706 32.3814 12.8271 33.6646 17.7941ZM8.08821 32.2059H5.80279L3.76468 30.1678V22.7146L5.80279 20.6765H8.08821V32.2059ZM5.20585 39.5078V35.0882H8.37519C8.91775 37.776 10.2159 40.2432 12.139 42.2248C11.7358 42.6556 11.4196 43.1681 11.2184 43.7353H9.43331C7.10225 43.7353 5.20585 41.8389 5.20585 39.5078ZM18.1764 46.6176H15.2941C14.4993 46.6176 13.8529 45.9712 13.8529 45.1765C13.8529 44.3818 14.4993 43.7353 15.2941 43.7353H18.1764C18.9711 43.7353 19.6176 44.3818 19.6176 45.1765C19.6176 45.9712 18.9711 46.6176 18.1764 46.6176ZM34.0294 32.2059C34.0294 38.5632 28.8573 43.7353 22.5 43.7353C22.4173 43.7353 22.334 43.7337 22.2508 43.7317C21.655 42.0561 20.0539 40.8529 18.1764 40.8529C15.2172 40.8595 15.2644 40.8381 14.8956 40.8721C12.3935 38.679 10.9706 35.5553 10.9706 32.2059V20.6765H13.8529C16.4035 20.6765 19.5097 20.2559 21.9142 17.3296C25.0867 20.6542 28.9636 20.6765 32.4439 20.6765H34.0294V32.2059ZM41.2353 30.1678L39.1972 32.2059H36.9117V20.6765H39.1972L41.2353 22.7146V30.1678Z" fill="#EBAF29"/>
</svg>
