<svg width="23" height="23" viewBox="0 0 23 23" fill="none" xmlns="http://www.w3.org/2000/svg">
<path d="M15.9085 5.5775C15.2534 4.82964 14.8924 3.86921 14.8927 2.875H11.9314V14.7583C11.9086 15.4014 11.6371 16.0105 11.1741 16.4574C10.7111 16.9043 10.0928 17.1541 9.44932 17.1542C8.08848 17.1542 6.95765 16.0425 6.95765 14.6625C6.95765 13.0142 8.54848 11.7779 10.1872 12.2858V9.2575C6.88098 8.81667 3.98682 11.385 3.98682 14.6625C3.98682 17.8538 6.63182 20.125 9.43973 20.125C12.4489 20.125 14.8927 17.6812 14.8927 14.6625V8.63458C16.0934 9.49694 17.5351 9.95962 19.0135 9.95708V6.99583C19.0135 6.99583 17.2118 7.08208 15.9085 5.5775Z" fill="white"/>
</svg>
