<svg width="44" height="45" viewBox="0 0 44 45" fill="none" xmlns="http://www.w3.org/2000/svg">
<mask id="mask0_149_6874" style="mask-type:luminance" maskUnits="userSpaceOnUse" x="1" y="7" width="42" height="33">
<path d="M16.5 9.66675H38.5C38.9862 9.66675 39.4525 9.8599 39.7964 10.2037C40.1402 10.5475 40.3333 11.0139 40.3333 11.5001V35.3334C40.3333 35.8196 40.1402 36.286 39.7964 36.6298C39.4525 36.9736 38.9862 37.1667 38.5 37.1667H16.5" stroke="white" stroke-width="4"/>
<path d="M3.6665 11.5001C3.6665 11.0139 3.85966 10.5475 4.20347 10.2037C4.54729 9.8599 5.01361 9.66675 5.49984 9.66675H16.4998V37.1667H5.49984C5.01361 37.1667 4.54729 36.9736 4.20347 36.6298C3.85966 36.286 3.6665 35.8196 3.6665 35.3334V11.5001Z" fill="#555555" stroke="white" stroke-width="4"/>
<path d="M10.083 16.0834V19.7501M33.9163 15.1667L22.9163 30.7501" stroke="white" stroke-width="4" stroke-linecap="round" stroke-linejoin="round"/>
<path d="M11.9167 25.2501C11.9167 24.2376 11.0959 23.4167 10.0833 23.4167C9.07081 23.4167 8.25 24.2376 8.25 25.2501C8.25 26.2626 9.07081 27.0834 10.0833 27.0834C11.0959 27.0834 11.9167 26.2626 11.9167 25.2501Z" fill="white"/>
<path d="M11.9167 30.7501C11.9167 29.7376 11.0959 28.9167 10.0833 28.9167C9.07081 28.9167 8.25 29.7376 8.25 30.7501C8.25 31.7626 9.07081 32.5834 10.0833 32.5834C11.0959 32.5834 11.9167 31.7626 11.9167 30.7501Z" fill="white"/>
</mask>
<g mask="url(#mask0_149_6874)">
<path d="M0 0.5H44V44.5H0V0.5Z" fill="white"/>
</g>
</svg>
