<svg width="29" height="29" viewBox="0 0 29 29" fill="none" xmlns="http://www.w3.org/2000/svg">
<path fill-rule="evenodd" clip-rule="evenodd" d="M4.22933 6.04175C3.90886 6.04175 3.60152 6.16905 3.37491 6.39566C3.1483 6.62227 3.021 6.92961 3.021 7.25008C3.021 7.57055 3.1483 7.8779 3.37491 8.1045C3.60152 8.33111 3.90886 8.45841 4.22933 8.45841H24.771C25.0915 8.45841 25.3988 8.33111 25.6254 8.1045C25.852 7.8779 25.9793 7.57055 25.9793 7.25008C25.9793 6.92961 25.852 6.62227 25.6254 6.39566C25.3988 6.16905 25.0915 6.04175 24.771 6.04175H4.22933ZM3.021 14.5001C3.021 14.1796 3.1483 13.8723 3.37491 13.6457C3.60152 13.4191 3.90886 13.2917 4.22933 13.2917H24.771C25.0915 13.2917 25.3988 13.4191 25.6254 13.6457C25.852 13.8723 25.9793 14.1796 25.9793 14.5001C25.9793 14.8206 25.852 15.1279 25.6254 15.3545C25.3988 15.5811 25.0915 15.7084 24.771 15.7084H4.22933C3.90886 15.7084 3.60152 15.5811 3.37491 15.3545C3.1483 15.1279 3.021 14.8206 3.021 14.5001ZM3.021 21.7513C3.021 21.4308 3.1483 21.1235 3.37491 20.8969C3.60152 20.6703 3.90886 20.543 4.22933 20.543H24.771C25.0915 20.543 25.3988 20.6703 25.6254 20.8969C25.852 21.1235 25.9793 21.4308 25.9793 21.7513C25.9793 22.0718 25.852 22.3791 25.6254 22.6057C25.3988 22.8323 25.0915 22.9596 24.771 22.9596H4.22933C3.90886 22.9596 3.60152 22.8323 3.37491 22.6057C3.1483 22.3791 3.021 22.0718 3.021 21.7513Z" fill="#192540"/>
</svg>
