<svg width="112" height="56" viewBox="0 0 112 56" fill="none" xmlns="http://www.w3.org/2000/svg">
<g clip-path="url(#clip0_149_6083)">
<path d="M112 10.2301V45.7656C112 51.4169 107.448 56 101.824 56H10.1799C4.55863 56 0 51.4169 0 45.7656V10.2301C0 4.57656 4.55863 0 10.1799 0H101.824C107.446 0 112 4.57656 112 10.2301Z" fill="#192540"/>
<path d="M112 10.2301V45.7656C112 51.4169 107.448 56 101.824 56H82.2686V0H101.824C107.446 0 112 4.57656 112 10.2301Z" fill="#EBAF29"/>
<path d="M101.109 53.1159H10.8956C6.46415 53.1159 2.86035 49.4928 2.86035 45.0376V10.9604C2.86035 6.50519 6.46415 2.88208 10.8956 2.88208H101.111C105.543 2.88208 109.146 6.50519 109.146 10.9604V45.0376C109.146 49.4928 105.543 53.1159 101.111 53.1159H101.109ZM10.8956 3.49966C6.80254 3.49966 3.47463 6.84756 3.47463 10.9604V45.0376C3.47463 49.1526 6.8047 52.4983 10.8956 52.4983H101.111C105.204 52.4983 108.532 49.1504 108.532 45.0376V10.9604C108.532 6.8454 105.202 3.49966 101.111 3.49966H10.8956Z" fill="white"/>
<path d="M24.8085 24.092C24.8085 21.8102 24.0067 19.8752 22.401 18.289C20.8233 16.7028 18.9373 15.9097 16.7453 15.9097H16.5103C14.3054 15.9097 12.4087 16.6963 10.8158 18.2695C9.23809 19.8556 8.44922 21.7972 8.44922 24.092V32.296C8.44922 34.5908 9.23809 36.5389 10.8158 38.138C12.4065 39.7242 14.3442 40.5173 16.6267 40.5173C18.9093 40.5173 20.8211 39.7242 22.3988 38.138C24.0024 36.5389 24.8064 34.5908 24.8064 32.296V24.092H24.8085ZM20.7176 32.3155C20.7176 33.4575 20.3124 34.4326 19.5042 35.2474C18.7218 36.034 17.7626 36.4283 16.6289 36.4283C15.4952 36.4283 14.4951 36.034 13.7127 35.2474C12.9303 34.4608 12.538 33.4835 12.538 32.3155V24.092C12.538 22.9392 12.9303 21.9684 13.7127 21.1796C14.5209 20.393 15.493 19.9987 16.6289 19.9987C17.7648 19.9987 18.7218 20.393 19.5042 21.1796C20.3124 21.9532 20.7176 22.924 20.7176 24.092V32.3155Z" fill="white"/>
<path d="M69.2866 15.8901C67.9288 15.8901 67.252 16.5727 67.252 17.9357V32.2959C67.252 33.4509 66.8532 34.426 66.0579 35.2278C65.2755 36.0144 64.3099 36.4088 63.1611 36.4088H61.0294C59.8806 36.4088 58.9171 36.0144 58.1326 35.2278C57.3372 34.4412 56.9385 33.4639 56.9385 32.2959V24.0919C56.9385 21.8232 56.1431 19.8881 54.5503 18.2889C52.9575 16.6897 51.0349 15.8879 48.7782 15.8879C46.5215 15.8879 44.558 16.681 42.9673 18.2672C41.3896 19.8534 40.6007 21.795 40.6007 24.0898V32.2938C40.6007 33.4618 40.202 34.439 39.4066 35.2256C38.6501 35.9862 37.678 36.3806 36.4904 36.4066H36.3934C35.2597 36.4066 34.2876 36.0122 33.4772 35.2256C32.6948 34.413 32.3025 33.4292 32.3025 32.2743V17.9335C32.3025 16.5705 31.6235 15.8879 30.2678 15.8879C28.9121 15.8879 28.2137 16.5705 28.2137 17.9335V42.3657C28.2137 43.6247 27.8409 44.7991 27.0972 45.8869C26.3536 46.9617 25.3751 47.7223 24.1616 48.1687C24.8276 48.4179 25.5044 48.5414 26.1963 48.5414C27.9055 48.5414 29.3475 47.939 30.52 46.732C31.7076 45.5381 32.3003 44.0819 32.3003 42.3657V39.4338C33.5009 40.1424 34.8631 40.4956 36.3891 40.4956H37.1715V40.4696C39.3118 40.3418 41.1352 39.4468 42.6311 37.7609C44.2347 39.5833 46.2823 40.4956 48.7761 40.4956H48.8731C51.2591 40.4956 53.2743 39.5833 54.9189 37.7609C56.5354 39.5833 58.5766 40.4956 61.0423 40.4956H63.1546C65.4242 40.4956 67.349 39.7025 68.9267 38.1163C70.5303 36.5041 71.3343 34.5561 71.3343 32.2743V17.9335C71.3343 16.5705 70.6488 15.8879 69.2802 15.8879L69.2866 15.8901ZM52.8691 32.2959C52.8691 33.4379 52.4639 34.413 51.6556 35.2278C50.8474 36.0426 49.9141 36.4088 48.7804 36.4088C47.6466 36.4088 46.6465 36.0144 45.8641 35.2278C45.0817 34.4412 44.6895 33.4639 44.6895 32.2959V24.0919C44.6895 22.9391 45.0817 21.9683 45.8641 21.1796C46.6724 20.393 47.6445 19.9986 48.7804 19.9986C49.9163 19.9986 50.8732 20.393 51.6556 21.1796C52.4639 21.9532 52.8691 22.924 52.8691 24.0919V32.2959Z" fill="white"/>
<path d="M82.9737 45.8719H67.8537C67.289 45.8719 66.832 45.4125 66.832 44.8448C66.832 44.277 67.289 43.8176 67.8537 43.8176H82.9737C83.5384 43.8176 83.9953 44.277 83.9953 44.8448C83.9953 45.4125 83.5384 45.8719 82.9737 45.8719Z" fill="#EBAF29"/>
<path d="M82.9737 50.6954H67.8537C67.289 50.6954 66.832 50.236 66.832 49.6682C66.832 49.1005 67.289 48.6411 67.8537 48.6411H82.9737C83.5384 48.6411 83.9953 49.1005 83.9953 49.6682C83.9953 50.236 83.5384 50.6954 82.9737 50.6954Z" fill="#EBAF29"/>
<path d="M68.7008 13.175C70.6126 13.175 72.1623 11.6169 72.1623 9.69494C72.1623 7.77293 70.6126 6.21484 68.7008 6.21484C66.789 6.21484 65.2393 7.77293 65.2393 9.69494C65.2393 11.6169 66.789 13.175 68.7008 13.175Z" fill="#EBAF29"/>
<path d="M13.0035 13.175C14.9153 13.175 16.4651 11.6169 16.4651 9.69494C16.4651 7.77293 14.9153 6.21484 13.0035 6.21484C11.0918 6.21484 9.54199 7.77293 9.54199 9.69494C9.54199 11.6169 11.0918 13.175 13.0035 13.175Z" fill="#EBAF29"/>
<path d="M20.6764 13.175C22.5881 13.175 24.1379 11.6169 24.1379 9.69494C24.1379 7.77293 22.5881 6.21484 20.6764 6.21484C18.7646 6.21484 17.2148 7.77293 17.2148 9.69494C17.2148 11.6169 18.7646 13.175 20.6764 13.175Z" fill="#EBAF29"/>
<path d="M102.473 49.952H87.4438V47.6356C89.888 46.9292 97.5332 44.9789 98.5419 44.7774V44.7471C96.6085 44.8446 94.4941 44.8597 92.0348 44.8597H87.446V43.02H102.475V45.252C100.178 45.889 91.9206 47.9758 91.011 48.1925V48.2142C92.8258 48.108 95.0416 48.095 97.7487 48.095H102.475V49.9499L102.473 49.952Z" fill="#192540"/>
<path d="M87.4438 38.9875H98.9988C100.167 38.9875 100.9 38.5888 100.9 37.5725C100.9 36.5562 100.152 36.19 99.0053 36.19H87.4438V34.2073H98.9536C101.301 34.2073 102.685 35.2712 102.685 37.6115C102.685 39.9518 101.454 40.9638 98.9773 40.9638H87.446V38.9875H87.4438Z" fill="#192540"/>
<path d="M96.5482 24.5838C93.8949 24.5838 90.8192 24.547 89.1531 24.5015V24.5232C91.718 24.885 98.0656 25.8775 102.473 26.6056V28.4973C98.5872 29.0455 91.8538 30.0597 89.138 30.4151V30.4606C90.886 30.4151 94.2893 30.3392 96.8693 30.3392H102.473V32.1486H87.4438V29.2102C91.5692 28.5038 96.4533 27.7086 98.4643 27.5049V27.4832C96.4598 27.2427 91.33 26.2567 87.4438 25.5438V22.6899H102.473V24.5817H96.5482V24.5838Z" fill="#192540"/>
<path d="M95.6063 18.5705H102.473V20.5467H87.4438V17.6062C87.4438 15.3222 88.3879 14.0828 90.9851 14.0828H91.6145C93.7914 14.0828 94.5027 14.9214 94.7635 15.6213C95.1472 14.7025 95.8218 14.2258 97.8457 14.2258C99.1195 14.2258 101.544 14.2475 102.473 14.0828V15.9983C101.551 16.1955 99.0549 16.1565 97.9815 16.1565C96.0934 16.1565 95.6063 16.4122 95.6063 17.8359V18.5705ZM93.966 18.5705V17.8142C93.966 16.4816 93.3259 16.0655 91.705 16.0655H91.1145C89.8493 16.0655 89.0862 16.3732 89.0862 17.7882V18.5705H93.966Z" fill="#192540"/>
<path d="M98.072 10.3752L102.473 10.9993V13.0058L87.4438 10.5485V7.74671L102.473 5.19189V7.25915L98.072 7.9439V10.3774V10.3752ZM96.2658 8.18443C93.341 8.61998 90.8537 8.97319 89.291 9.13138V9.20722C90.4915 9.26789 93.7893 9.76412 96.2658 10.1173V8.18443Z" fill="#192540"/>
<path d="M61.8721 10.8563C61.7212 10.748 61.5488 10.683 61.3548 10.618C60.1478 12.1565 57.973 13.0232 56.8522 13.4328C56.5074 13.4328 54.8693 13.3028 54.7184 13.0427L54.6753 12.9344C56.5936 12.176 58.7684 11.3309 60.0616 10.3558C58.3373 10.0524 57.4536 9.4023 57.4536 8.14548C57.4536 6.47695 59.027 5.17896 60.3849 5.17896C61.2039 5.17896 62.2385 5.95905 62.2385 8.25383C62.2385 8.57887 62.1954 8.88224 62.1092 9.16394C62.411 9.20728 62.6696 9.29396 62.8851 9.44564L61.8721 10.8541V10.8563ZM61.163 9.03826C61.2061 8.90824 61.2277 8.77823 61.2277 8.64821C61.2061 7.67309 60.5379 6.52462 59.7189 6.52462C59.0723 6.52462 58.4688 7.00134 58.4688 7.41306C58.4688 8.14982 59.5464 8.71322 61.163 9.03826Z" fill="#EBAF29"/>
</g>
<defs>
<clipPath id="clip0_149_6083">
<rect width="112" height="56" fill="white"/>
</clipPath>
</defs>
</svg>
