<svg width="282" height="67" viewBox="0 0 282 67" fill="none" xmlns="http://www.w3.org/2000/svg">
<g clip-path="url(#clip0_149_5584)">
<path d="M269.907 4.65625H14.3194C8.97289 4.65625 4.63867 8.98429 4.63867 14.3232V54.9244C4.63867 60.2633 8.97289 64.5913 14.3194 64.5913H269.907C275.254 64.5913 279.588 60.2633 279.588 54.9244V14.3232C279.588 8.98429 275.254 4.65625 269.907 4.65625Z" fill="white" stroke="#A4A5A9" stroke-width="6" stroke-miterlimit="10"/>
<path d="M269.907 4.65625H14.3194C8.97289 4.65625 4.63867 8.98429 4.63867 14.3232V54.9244C4.63867 60.2633 8.97289 64.5913 14.3194 64.5913H269.907C275.254 64.5913 279.588 60.2633 279.588 54.9244V14.3232C279.588 8.98429 275.254 4.65625 269.907 4.65625Z" fill="white" stroke="#272425" stroke-width="3" stroke-miterlimit="10"/>
<g filter="url(#filter0_d_149_5584)">
<path d="M4.63867 52.999V13.9526C4.63867 8.8372 8.82559 4.65625 13.9483 4.65625H268.665" stroke="#272425" stroke-width="2" stroke-miterlimit="10"/>
</g>
<path d="M56.4147 15.0966C56.5035 17.1588 55.1159 17.2394 55.1159 17.2394H51.4856C50.211 17.3522 50.0093 18.3108 49.9771 18.5364V20.3812H56.7374L57.7539 16.321L56.4228 15.0885L56.4147 15.0966Z" fill="#272425"/>
<path d="M43.6036 10.7384V13.9849C43.6036 13.9849 45.2574 14.1299 45.1929 15.6524C45.1929 15.6524 45.3542 17.0783 43.6036 17.1266L37.0691 17.2394L36.6577 20.3892H44.2087C44.2087 20.3892 48.2665 20.1878 48.5166 15.5638C48.5166 15.5638 48.4924 10.9881 43.5956 10.7384H43.6036Z" fill="#272425"/>
<path d="M27.6304 17.2394H29.623C29.623 17.2394 30.7766 17.4408 30.8008 18.625V22.2984C30.8008 22.2984 30.825 23.5632 32.14 23.6357H34.2294V26.8258H30.3974C30.3974 26.8258 27.945 26.5277 27.6304 24.111V17.2474V17.2394Z" fill="#272425"/>
<path d="M16.4976 10.8834V26.7694H23.5161V10.8834H16.4976ZM22.911 22.1776C22.661 23.8048 21.5073 23.7485 21.5073 23.7485H19.6035V14.0976C19.6035 14.0976 20.3537 13.9365 21.6203 14.0976C22.8868 14.2587 22.911 15.3624 22.911 15.3624V22.1695V22.1776Z" fill="#272425"/>
<path d="M16.4978 10.8511V12.6637C16.4978 12.6637 16.7398 13.8721 17.9499 14.1137H21.2736C21.2736 14.1137 22.8468 13.9929 22.8468 15.5638V25.2871C22.8468 25.2871 22.9678 26.6163 21.5157 26.7935H23.2663C23.2663 26.7935 25.4444 26.5519 25.9849 24.1996V13.7512C25.9849 13.7512 26.1705 11.5198 23.3227 10.8511H16.4897H16.4978Z" fill="#272425"/>
<path d="M30.8089 10.8511V17.1266C30.8089 17.1266 30.5588 16.6271 29.6714 16.5385L27.6304 16.5627V12.1239C27.6304 12.1239 27.7675 11.0123 28.9453 10.8592H30.8089V10.8511Z" fill="#272425"/>
<path d="M34.1084 10.8511V17.1266C34.1084 17.1266 34.3585 16.6271 35.2459 16.5385L37.2869 16.5627V12.1239C37.2869 12.1239 37.1498 11.0123 35.9719 10.8592H34.1084V10.8511Z" fill="#272425"/>
<path d="M38.61 17.2394H35.3185C35.3185 17.2394 34.0036 17.4408 34.0278 18.6411V25.3193C34.0278 25.3193 33.939 26.4552 32.7773 26.7694L34.4553 26.8177C34.4553 26.8177 36.5851 26.7694 37.1982 24.1674V18.6169C37.1982 18.6169 37.0369 17.6905 38.6019 17.2313L38.61 17.2394Z" fill="#272425"/>
<path d="M31.3984 27.3897H31.2041C31.2689 27.3897 31.3336 27.3897 31.3984 27.4142V27.3897Z" fill="#272425"/>
<path d="M31.3977 27.4058C31.3331 27.3897 31.2686 27.3816 31.2041 27.3816H30.3086V28.2839C30.3086 28.3967 30.3328 28.5014 30.3651 28.598C30.4941 28.9444 30.8168 29.1861 31.2041 29.1861C31.6962 29.1861 32.0995 28.7833 32.0995 28.2839C32.0995 27.8489 31.801 27.4863 31.3977 27.3977V27.4058Z" fill="#272425"/>
<path d="M33.7375 27.4058C33.673 27.3897 33.6084 27.3816 33.5439 27.3816H32.6484V28.2839C32.6484 28.3967 32.6726 28.5014 32.7049 28.598C32.834 28.9444 33.1567 29.1861 33.5439 29.1861C34.036 29.1861 34.4394 28.7833 34.4394 28.2839C34.4394 27.8489 34.1409 27.4863 33.7375 27.3977V27.4058Z" fill="#272425"/>
<path d="M38.7715 21.1142H42.0387V22.3387C42.0387 22.3387 42.4502 23.6518 43.628 23.6276C43.628 23.6276 45.3302 23.7162 45.306 22.0326C45.306 22.0326 45.306 21.1626 44.7816 20.937C44.7816 20.937 46.7742 20.8001 47.6374 19.3742C47.6374 19.3742 49.5171 21.6137 47.6374 24.6266C47.6374 24.6266 46.3467 26.6002 44.5073 26.713H39.9735C39.9735 26.713 38.9328 26.4391 38.7715 25.5369V21.1223V21.1142Z" fill="#272425"/>
<path d="M43.8132 21.1465C43.7487 21.1303 43.6841 21.1223 43.6196 21.1223H42.7241V22.0245C42.7241 22.1373 42.7483 22.242 42.7806 22.3387C42.9097 22.6851 43.2324 22.9268 43.6196 22.9268C44.1117 22.9268 44.5151 22.524 44.5151 22.0245C44.5151 21.5895 44.2166 21.227 43.8132 21.1384V21.1465Z" fill="#272425"/>
<path d="M38.7954 10.7384H42.9501V14.1782C42.9501 14.1782 42.1353 14.4521 42.0627 15.3543L42.0385 16.466H38.7954V10.7384Z" fill="#272425"/>
<path d="M53.8733 10.7384C53.8733 10.7384 50.4447 10.4403 49.9688 13.6062V17.1266C49.9688 17.1266 50.4205 16.4016 51.558 16.466H53.2118L53.1634 12.0837C53.1634 12.0837 53.2763 11.1412 53.8652 10.7384H53.8733Z" fill="#272425"/>
<path d="M55.2367 10.7384H56.8663C56.8663 10.7384 59.1977 11.0123 59.5849 13.3968V17.7469C59.5849 17.7469 59.3429 20.0106 56.9227 20.3892H54.9301C54.9301 20.3892 56.2935 20.1959 56.3822 19.1244L56.4387 15.3302C56.4387 15.3302 56.4064 14.0976 55.1963 13.9929H53.8652V12.132C53.8652 12.132 53.9862 11.1089 55.2286 10.7464L55.2367 10.7384Z" fill="#272425"/>
<path d="M49.9932 21.1223H53.212V25.5771C53.212 25.5771 53.0345 26.7533 51.897 26.8016H49.9932V21.1223Z" fill="#272425"/>
<path d="M56.3902 21.1223C56.3902 21.1223 58.641 21.2431 59.5929 19.4789V26.8016H57.6245C57.6245 26.8016 56.487 26.6647 56.3257 25.5046V21.1223H56.3902Z" fill="#272425"/>
<path d="M64.4494 10.8028H62.4245C62.4245 10.8028 61.408 10.8753 61.166 12.1159L61.1821 26.8097H63.1667C63.1667 26.8097 64.0864 26.8097 64.4494 25.6658V10.8028Z" fill="#272425"/>
<!-- <path d="M134.846 18.4V23.008L127.07 52H121.79L129.518 23.2H119.006V18.4H134.846ZM152.549 26.656C152.549 25.152 152.293 24.144 151.781 23.632C151.301 23.088 150.645 22.816 149.813 22.816C148.981 22.816 148.309 23.072 147.797 23.584C147.317 24.064 147.077 24.912 147.077 26.128V28.288H142.085V26.464C142.085 23.744 142.741 21.664 144.053 20.224C145.397 18.752 147.365 18.016 149.957 18.016C152.549 18.016 154.501 18.752 155.813 20.224C157.157 21.664 157.829 23.744 157.829 26.464V27.328C157.829 30.912 156.597 33.216 154.133 34.24C155.477 34.816 156.421 35.712 156.965 36.928C157.541 38.112 157.829 39.568 157.829 41.296V43.936C157.829 46.656 157.157 48.752 155.813 50.224C154.501 51.664 152.549 52.384 149.957 52.384C147.365 52.384 145.397 51.664 144.053 50.224C142.741 48.752 142.085 46.656 142.085 43.936V41.152H147.077V44.272C147.077 45.488 147.317 46.352 147.797 46.864C148.309 47.344 148.981 47.584 149.813 47.584C150.645 47.584 151.301 47.328 151.781 46.816C152.293 46.304 152.549 45.296 152.549 43.792V41.152C152.549 39.584 152.277 38.48 151.733 37.84C151.189 37.2 150.309 36.88 149.093 36.88H147.317V32.08H149.381C150.373 32.08 151.141 31.824 151.685 31.312C152.261 30.8 152.549 29.872 152.549 28.528V26.656ZM180.908 18.4V23.008L173.132 52H167.852L175.58 23.2H165.068V18.4H180.908ZM203.94 18.4V23.008L196.164 52H190.884L198.612 23.2H188.1V18.4H203.94ZM210.219 41.104L219.819 18.4H225.579V41.104H228.075V45.904H225.579V52H220.395V45.904H210.219V41.104ZM220.395 41.104V28.48L215.067 41.104H220.395Z" fill="black"/> -->
<!-- <path d="M36.7184 58H32.7584V32.8H36.7184V43.6H41.2184V32.8H45.2504V58H41.2184V47.2H36.7184V58Z" fill="black"/> -->
</g>
<defs>
<filter id="filter0_d_149_5584" x="1.86867" y="1.88625" width="276.826" height="61.1428" filterUnits="userSpaceOnUse" color-interpolation-filters="sRGB">
<feFlood flood-opacity="0" result="BackgroundImageFix"/>
<feColorMatrix in="SourceAlpha" type="matrix" values="0 0 0 0 0 0 0 0 0 0 0 0 0 0 0 0 0 0 127 0" result="hardAlpha"/>
<feOffset dx="4.13" dy="4.13"/>
<feGaussianBlur stdDeviation="2.95"/>
<feColorMatrix type="matrix" values="0 0 0 0 0.152941 0 0 0 0 0.141176 0 0 0 0 0.145098 0 0 0 0.75 0"/>
<feBlend mode="normal" in2="BackgroundImageFix" result="effect1_dropShadow_149_5584"/>
<feBlend mode="normal" in="SourceGraphic" in2="effect1_dropShadow_149_5584" result="shape"/>
</filter>
<clipPath id="clip0_149_5584">
<rect width="282" height="67" fill="white"/>
</clipPath>
</defs>
</svg>
