<svg width="21" height="20" viewBox="0 0 21 20" fill="none" xmlns="http://www.w3.org/2000/svg">
<path d="M13.25 12C13.25 12.2652 13.1446 12.5196 12.9571 12.7071C12.7696 12.8946 12.5152 13 12.25 13C11.9848 13 11.7304 12.8946 11.5429 12.7071C11.3554 12.5196 11.25 12.2652 11.25 12C11.25 11.7348 11.3554 11.4804 11.5429 11.2929C11.7304 11.1054 11.9848 11 12.25 11C12.5152 11 12.7696 11.1054 12.9571 11.2929C13.1446 11.4804 13.25 11.7348 13.25 12ZM9.75 12C9.75 12.2652 9.64464 12.5196 9.45711 12.7071C9.26957 12.8946 9.01522 13 8.75 13C8.48478 13 8.23043 12.8946 8.04289 12.7071C7.85536 12.5196 7.75 12.2652 7.75 12C7.75 11.7348 7.85536 11.4804 8.04289 11.2929C8.23043 11.1054 8.48478 11 8.75 11C9.01522 11 9.26957 11.1054 9.45711 11.2929C9.64464 11.4804 9.75 11.7348 9.75 12Z" fill="#EBAF29"/>
<path fill-rule="evenodd" clip-rule="evenodd" d="M10.5 7C10.894 7 11.2841 6.9224 11.6481 6.77164C12.012 6.62087 12.3427 6.3999 12.6213 6.12132C12.8999 5.84274 13.1209 5.51203 13.2716 5.14805C13.4224 4.78407 13.5 4.39397 13.5 4C13.5 3.60603 13.4224 3.21593 13.2716 2.85195C13.1209 2.48797 12.8999 2.15726 12.6213 1.87868C12.3427 1.6001 12.012 1.37913 11.6481 1.22836C11.2841 1.0776 10.894 1 10.5 1C9.70435 1 8.94129 1.31607 8.37868 1.87868C7.81607 2.44129 7.5 3.20435 7.5 4C7.5 4.79565 7.81607 5.55871 8.37868 6.12132C8.94129 6.68393 9.70435 7 10.5 7ZM10.5 2C11.0304 2 11.5391 2.21071 11.9142 2.58579C12.2893 2.96086 12.5 3.46957 12.5 4C12.5 4.53043 12.2893 5.03914 11.9142 5.41421C11.5391 5.78929 11.0304 6 10.5 6C9.96957 6 9.46086 5.78929 9.08579 5.41421C8.71071 5.03914 8.5 4.53043 8.5 4C8.5 3.46957 8.71071 2.96086 9.08579 2.58579C9.46086 2.21071 9.96957 2 10.5 2ZM11 14H10C9.60218 14 9.22064 14.158 8.93934 14.4393C8.65804 14.7206 8.5 15.1022 8.5 15.5V17.5C8.5 17.8978 8.65804 18.2794 8.93934 18.5607C9.22064 18.842 9.60218 19 10 19H11C11.3978 19 11.7794 18.842 12.0607 18.5607C12.342 18.2794 12.5 17.8978 12.5 17.5V15.5C12.5 15.1022 12.342 14.7206 12.0607 14.4393C11.7794 14.158 11.3978 14 11 14ZM9.5 15.5C9.5 15.3674 9.55268 15.2402 9.64645 15.1464C9.74021 15.0527 9.86739 15 10 15H11C11.1326 15 11.2598 15.0527 11.3536 15.1464C11.4473 15.2402 11.5 15.3674 11.5 15.5V17.5C11.5 17.6326 11.4473 17.7598 11.3536 17.8536C11.2598 17.9473 11.1326 18 11 18H10C9.86739 18 9.74021 17.9473 9.64645 17.8536C9.55268 17.7598 9.5 17.6326 9.5 17.5V15.5Z" fill="#EBAF29"/>
<path d="M16 3.75C15.8011 3.75 15.6103 3.67098 15.4697 3.53033C15.329 3.38968 15.25 3.19891 15.25 3C15.25 2.80109 15.329 2.61032 15.4697 2.46967C15.6103 2.32902 15.8011 2.25 16 2.25H18C18.1989 2.25 18.3897 2.32902 18.5303 2.46967C18.671 2.61032 18.75 2.80109 18.75 3C18.75 3.19891 18.671 3.38968 18.5303 3.53033C18.3897 3.67098 18.1989 3.75 18 3.75H16ZM3 3.75C2.80109 3.75 2.61032 3.67098 2.46967 3.53033C2.32902 3.38968 2.25 3.19891 2.25 3C2.25 2.80109 2.32902 2.61032 2.46967 2.46967C2.61032 2.32902 2.80109 2.25 3 2.25H5C5.19891 2.25 5.38968 2.32902 5.53033 2.46967C5.67098 2.61032 5.75 2.80109 5.75 3C5.75 3.19891 5.67098 3.38968 5.53033 3.53033C5.38968 3.67098 5.19891 3.75 5 3.75H3Z" fill="#EBAF29"/>
<path d="M4.60596 3.36404L4.90796 2.39404L8.60596 3.13604L8.30396 4.10604L4.60596 3.36404ZM12.394 3.13604L12.696 4.10604L16.394 3.36404L16.092 2.39404L12.394 3.13604Z" fill="#EBAF29"/>
<path fill-rule="evenodd" clip-rule="evenodd" d="M15 10.5C15 9.90905 14.8836 9.32389 14.6575 8.77792C14.4313 8.23196 14.0998 7.73588 13.682 7.31802C13.2641 6.90016 12.768 6.56869 12.2221 6.34254C11.6761 6.1164 11.0909 6 10.5 6C9.90905 6 9.32389 6.1164 8.77792 6.34254C8.23196 6.56869 7.73588 6.90016 7.31802 7.31802C6.90016 7.73588 6.56869 8.23196 6.34254 8.77792C6.1164 9.32389 6 9.90905 6 10.5V13C6 13.5304 6.21071 14.0391 6.58579 14.4142C6.96086 14.7893 7.46957 15 8 15H13C13.5304 15 14.0391 14.7893 14.4142 14.4142C14.7893 14.0391 15 13.5304 15 13V10.5ZM7 10.5C7 10.0404 7.09053 9.58525 7.26642 9.16061C7.44231 8.73597 7.70012 8.35013 8.02513 8.02513C8.35013 7.70012 8.73597 7.44231 9.16061 7.26642C9.58525 7.09053 10.0404 7 10.5 7C10.9596 7 11.4148 7.09053 11.8394 7.26642C12.264 7.44231 12.6499 7.70012 12.9749 8.02513C13.2999 8.35013 13.5577 8.73597 13.7336 9.16061C13.9095 9.58525 14 10.0404 14 10.5V13C14 13.2652 13.8946 13.5196 13.7071 13.7071C13.5196 13.8946 13.2652 14 13 14H8C7.73478 14 7.48043 13.8946 7.29289 13.7071C7.10536 13.5196 7 13.2652 7 13V10.5Z" fill="#EBAF29"/>
</svg>
