<svg width="30" height="30" viewBox="0 0 30 30" fill="none" xmlns="http://www.w3.org/2000/svg">
<path d="M12.0835 17.4167L28.1252 1.375M12.0835 17.4167L17.1877 27.625C17.2516 27.7646 17.3544 27.8829 17.4836 27.9659C17.6129 28.0488 17.7632 28.0929 17.9168 28.0929C18.0704 28.0929 18.2208 28.0488 18.35 27.9659C18.4793 27.8829 18.582 27.7646 18.646 27.625L28.1252 1.375M12.0835 17.4167L1.87516 12.3125C1.73554 12.2485 1.61722 12.1458 1.53427 12.0165C1.45132 11.8873 1.40723 11.7369 1.40723 11.5833C1.40723 11.4297 1.45132 11.2794 1.53427 11.1501C1.61722 11.0209 1.73554 10.9182 1.87516 10.8542L28.1252 1.375" stroke="white" stroke-width="2" stroke-linecap="round" stroke-linejoin="round"/>
</svg>
