<svg width="23" height="23" viewBox="0 0 23 23" fill="none" xmlns="http://www.w3.org/2000/svg">
<path d="M16.6173 5.23258C16.3899 5.23258 16.1675 5.30003 15.9784 5.42639C15.7893 5.55276 15.6419 5.73236 15.5549 5.9425C15.4678 6.15263 15.4451 6.38386 15.4894 6.60694C15.5338 6.83001 15.6433 7.03492 15.8042 7.19575C15.965 7.35659 16.1699 7.46611 16.393 7.51048C16.6161 7.55486 16.8473 7.53208 17.0574 7.44504C17.2676 7.358 17.4472 7.2106 17.5735 7.02149C17.6999 6.83237 17.7673 6.61003 17.7673 6.38258C17.7673 6.07758 17.6462 5.78508 17.4305 5.56941C17.2148 5.35374 16.9223 5.23258 16.6173 5.23258ZM21.0257 7.55175C21.007 6.75662 20.8581 5.96993 20.5848 5.223C20.3412 4.58392 19.9619 4.00522 19.4732 3.52675C18.9986 3.03553 18.4186 2.65867 17.7769 2.42466C17.032 2.14307 16.2444 1.99074 15.4482 1.97425C14.4323 1.91675 14.1065 1.91675 11.4998 1.91675C8.89317 1.91675 8.56734 1.91675 7.5515 1.97425C6.75528 1.99074 5.96771 2.14307 5.22275 2.42466C4.58228 2.66104 4.00273 3.03758 3.5265 3.52675C3.03529 4.00129 2.65842 4.58134 2.42442 5.223C2.14282 5.96795 1.9905 6.75552 1.974 7.55175C1.9165 8.56758 1.9165 8.89341 1.9165 11.5001C1.9165 14.1067 1.9165 14.4326 1.974 15.4484C1.9905 16.2446 2.14282 17.0322 2.42442 17.7772C2.65842 18.4188 3.03529 18.9989 3.5265 19.4734C4.00273 19.9626 4.58228 20.3391 5.22275 20.5755C5.96771 20.8571 6.75528 21.0094 7.5515 21.0259C8.56734 21.0834 8.89317 21.0834 11.4998 21.0834C14.1065 21.0834 14.4323 21.0834 15.4482 21.0259C16.2444 21.0094 17.032 20.8571 17.7769 20.5755C18.4186 20.3415 18.9986 19.9646 19.4732 19.4734C19.9641 18.9967 20.3437 18.4175 20.5848 17.7772C20.8581 17.0302 21.007 16.2435 21.0257 15.4484C21.0257 14.4326 21.0832 14.1067 21.0832 11.5001C21.0832 8.89341 21.0832 8.56758 21.0257 7.55175ZM19.3007 15.3334C19.2937 15.9417 19.1835 16.5445 18.9748 17.1159C18.8218 17.533 18.5761 17.9098 18.2561 18.218C17.9452 18.5347 17.5692 18.78 17.154 18.9367C16.5826 19.1454 15.9798 19.2556 15.3715 19.2626C14.4132 19.3105 14.0586 19.3201 11.5382 19.3201C9.01775 19.3201 8.66317 19.3201 7.70484 19.2626C7.07319 19.2744 6.44424 19.1771 5.84567 18.9751C5.44871 18.8103 5.08989 18.5657 4.7915 18.2563C4.47342 17.9485 4.23073 17.5713 4.08234 17.1542C3.84837 16.5746 3.7186 15.9582 3.699 15.3334C3.699 14.3751 3.6415 14.0205 3.6415 11.5001C3.6415 8.97966 3.6415 8.62508 3.699 7.66675C3.7033 7.04484 3.81683 6.42853 4.03442 5.84591C4.20313 5.44141 4.46209 5.08084 4.7915 4.79175C5.08266 4.46224 5.44249 4.20055 5.84567 4.02508C6.42982 3.81429 7.0455 3.70412 7.6665 3.69925C8.62484 3.69925 8.97942 3.64175 11.4998 3.64175C14.0203 3.64175 14.3748 3.64175 15.3332 3.69925C15.9415 3.70623 16.5442 3.8164 17.1157 4.02508C17.5512 4.18671 17.942 4.44948 18.2561 4.79175C18.5701 5.08613 18.8155 5.44603 18.9748 5.84591C19.1878 6.42948 19.2981 7.04554 19.3007 7.66675C19.3486 8.62508 19.3582 8.97966 19.3582 11.5001C19.3582 14.0205 19.3486 14.3751 19.3007 15.3334ZM11.4998 6.58383C10.5279 6.58573 9.57834 6.87567 8.77113 7.41702C7.96392 7.95838 7.33528 8.72685 6.96465 9.62535C6.59402 10.5238 6.49803 11.512 6.68881 12.4651C6.87958 13.4181 7.34856 14.2932 8.03649 14.9798C8.72442 15.6664 9.60043 16.1336 10.5538 16.3226C11.5072 16.5115 12.4952 16.4136 13.393 16.0412C14.2908 15.6688 15.058 15.0387 15.5978 14.2304C16.1376 13.4221 16.4257 12.472 16.4257 11.5001C16.4269 10.8533 16.3003 10.2127 16.0531 9.615C15.8059 9.01733 15.443 8.47444 14.9852 8.01755C14.5274 7.56065 13.9838 7.19877 13.3856 6.95272C12.7875 6.70667 12.1466 6.5813 11.4998 6.58383ZM11.4998 14.6913C10.8687 14.6913 10.2517 14.5042 9.72687 14.1535C9.20208 13.8029 8.79305 13.3044 8.55151 12.7213C8.30997 12.1382 8.24677 11.4965 8.36991 10.8775C8.49304 10.2585 8.79698 9.68983 9.24328 9.24353C9.68959 8.79722 10.2582 8.49329 10.8773 8.37015C11.4963 8.24702 12.138 8.31021 12.7211 8.55175C13.3042 8.79329 13.8026 9.20232 14.1533 9.72712C14.5039 10.2519 14.6911 10.8689 14.6911 11.5001C14.6911 11.9192 14.6085 12.3341 14.4482 12.7213C14.2878 13.1085 14.0527 13.4603 13.7564 13.7566C13.4601 14.053 13.1083 14.288 12.7211 14.4484C12.3339 14.6088 11.9189 14.6913 11.4998 14.6913Z" fill="white"/>
</svg>
