<svg width="21" height="17" viewBox="0 0 21 17" fill="none" xmlns="http://www.w3.org/2000/svg">
<path d="M14.2641 0C14.8211 1.8928e-05 15.3672 0.155134 15.841 0.447969C16.3149 0.740804 16.6979 1.15979 16.9471 1.658L18.3301 4.423C18.5741 4.323 18.8171 4.222 19.0531 4.105C19.2904 3.98645 19.5652 3.96705 19.8169 4.05106C20.0685 4.13508 20.2765 4.31563 20.3951 4.553C20.5136 4.79037 20.533 5.06511 20.449 5.31678C20.365 5.56846 20.1844 5.77645 19.9471 5.895C19.4531 6.141 19.2271 6.217 19.2271 6.217L20.1831 8.13C20.3921 8.547 20.5001 9.006 20.5001 9.472V12C20.5007 12.4222 20.4119 12.8397 20.2395 13.2251C20.0672 13.6105 19.8152 13.955 19.5001 14.236V15.5C19.5001 15.8978 19.342 16.2794 19.0607 16.5607C18.7794 16.842 18.3979 17 18.0001 17C17.6022 17 17.2207 16.842 16.9394 16.5607C16.6581 16.2794 16.5001 15.8978 16.5001 15.5V15H4.50007V15.5C4.50007 15.8978 4.34204 16.2794 4.06073 16.5607C3.77943 16.842 3.3979 17 3.00007 17C2.60225 17 2.22072 16.842 1.93941 16.5607C1.65811 16.2794 1.50007 15.8978 1.50007 15.5V14.236C0.886073 13.686 0.500073 12.888 0.500073 12V9.472C0.50026 9.00646 0.608789 8.54735 0.817073 8.131L1.77307 6.217C1.53086 6.11655 1.29144 6.00951 1.05507 5.896C0.937202 5.83752 0.832031 5.75635 0.745587 5.65715C0.659144 5.55795 0.593128 5.44266 0.551324 5.3179C0.509519 5.19314 0.492748 5.06135 0.501972 4.93009C0.511195 4.79884 0.546231 4.67069 0.605073 4.553C0.726243 4.31686 0.93541 4.13785 1.18742 4.05459C1.43944 3.97134 1.71408 3.99052 1.95207 4.108C2.18707 4.222 2.42807 4.325 2.67007 4.423L4.05307 1.658C4.30226 1.15979 4.68524 0.740804 5.15911 0.447969C5.63298 0.155134 6.17902 1.8928e-05 6.73607 0H14.2641ZM17.3341 6.904C15.6341 7.441 13.2151 8 10.5001 8C7.78507 8 5.36607 7.44 3.66607 6.904L2.60607 9.024C2.53638 9.16306 2.50008 9.31645 2.50007 9.472V12C2.50007 12.2652 2.60543 12.5196 2.79297 12.7071C2.9805 12.8946 3.23486 13 3.50007 13H17.5001C17.7653 13 18.0196 12.8946 18.2072 12.7071C18.3947 12.5196 18.5001 12.2652 18.5001 12V9.472C18.4999 9.31679 18.4636 9.16375 18.3941 9.025L17.3341 6.904ZM6.00007 9C6.3979 9 6.77943 9.15804 7.06073 9.43934C7.34204 9.72064 7.50007 10.1022 7.50007 10.5C7.50007 10.8978 7.34204 11.2794 7.06073 11.5607C6.77943 11.842 6.3979 12 6.00007 12C5.60225 12 5.22072 11.842 4.93941 11.5607C4.65811 11.2794 4.50007 10.8978 4.50007 10.5C4.50007 10.1022 4.65811 9.72064 4.93941 9.43934C5.22072 9.15804 5.60225 9 6.00007 9ZM15.0001 9C15.3979 9 15.7794 9.15804 16.0607 9.43934C16.342 9.72064 16.5001 10.1022 16.5001 10.5C16.5001 10.8978 16.342 11.2794 16.0607 11.5607C15.7794 11.842 15.3979 12 15.0001 12C14.6022 12 14.2207 11.842 13.9394 11.5607C13.6581 11.2794 13.5001 10.8978 13.5001 10.5C13.5001 10.1022 13.6581 9.72064 13.9394 9.43934C14.2207 9.15804 14.6022 9 15.0001 9ZM14.2641 2H6.73607C6.55041 2.0001 6.36844 2.05188 6.21055 2.14955C6.05265 2.24722 5.92506 2.38692 5.84207 2.553L4.57207 5.09C6.12007 5.555 8.20607 6 10.5001 6C12.7941 6 14.8801 5.555 16.4271 5.09L15.1581 2.553C15.0751 2.38692 14.9475 2.24722 14.7896 2.14955C14.6317 2.05188 14.4497 2.0001 14.2641 2Z" fill="#EBAF29"/>
</svg>
