<svg width="48" height="48" viewBox="0 0 48 48" fill="none" xmlns="http://www.w3.org/2000/svg">
<path d="M45.4288 17.009C44.7954 15.0478 45.0654 12.1037 43.4192 9.83056C41.76 7.5395 38.8743 6.88831 37.2448 5.69656C35.6325 4.51738 34.1325 1.95134 31.4204 1.06634C28.7848 0.206281 26.0897 1.37338 24 1.37338C21.9106 1.37338 19.2157 0.206 16.5796 1.06625C13.868 1.95106 12.3667 4.51766 10.7555 5.69628C9.12778 6.88662 6.23991 7.53959 4.581 9.83028C2.93616 12.1016 3.20344 15.0523 2.57119 17.0089C1.9695 18.8711 0 21.106 0 24.0002C0 26.8963 1.96725 29.1225 2.57119 30.9914C3.20456 32.9527 2.93456 35.8967 4.58081 38.1699C6.23991 40.461 9.12553 41.1121 10.7552 42.304C12.3672 43.483 13.8675 46.0492 16.5796 46.9341C19.2134 47.7936 21.9128 46.6271 24 46.6271C26.0843 46.6271 28.79 47.7924 31.4204 46.9342C34.1321 46.0494 35.6324 43.4833 37.2445 42.3042C38.8722 41.1138 41.7601 40.4608 43.419 38.1702C45.0639 35.8988 44.7965 32.9483 45.4288 30.9915C46.0305 29.1293 48 26.8944 48 24.0002C48 21.1044 46.0332 18.8787 45.4288 17.009ZM41.8606 29.8384C41.1223 32.1236 41.3157 34.681 40.382 35.9704C39.4357 37.277 36.9495 37.8738 35.0311 39.2771C33.1337 40.6647 31.8038 42.8643 30.2572 43.369C28.7939 43.8465 26.4093 42.8769 24.0001 42.8769C21.5733 42.8769 19.2132 43.8486 17.7429 43.369C16.1964 42.8643 14.8685 40.6662 12.969 39.277C11.0619 37.8823 8.56163 37.2732 7.61803 35.9702C6.68728 34.6851 6.87337 32.11 6.13959 29.8385C5.42034 27.613 3.75 25.6859 3.75 24.0002C3.75 22.3128 5.41884 20.3924 6.13941 18.162C6.87769 15.877 6.68428 13.3194 7.61803 12.03C8.56378 10.7243 11.0518 10.1255 12.969 8.72338C14.8724 7.33128 16.1939 5.13688 17.7428 4.63147C19.2048 4.15447 21.5972 5.12356 23.9999 5.12356C26.4311 5.12356 28.7853 4.15119 30.2571 4.63147C31.8034 5.13603 33.1325 7.33503 35.0311 8.72347C36.9379 10.1182 39.4384 10.7273 40.382 12.0301C41.3129 13.3155 41.1258 15.888 41.8604 18.1618V18.1619C42.5797 20.3875 44.25 22.3145 44.25 24.0002C44.25 25.6876 42.5812 27.608 41.8606 29.8384ZM32.6384 17.9819C33.3707 18.7142 33.3707 19.9014 32.6384 20.6336L23.2535 30.0185C22.5212 30.7508 21.3339 30.7507 20.6017 30.0185L15.3617 24.7784C14.6294 24.0462 14.6293 22.859 15.3616 22.1268C16.0939 21.3946 17.2812 21.3945 18.0132 22.1268L21.9276 26.0411L29.9866 17.982C30.7189 17.2498 31.9061 17.2498 32.6384 17.9819Z" fill="#EBAF29"/>
</svg>
